<svg width="16" height="16" viewBox="0 0 16 16" fill="none" xmlns="http://www.w3.org/2000/svg">
<path fill-rule="evenodd" clip-rule="evenodd" d="M13.1392 7.99793C12.8237 7.99793 12.5679 8.2537 12.5679 8.56921V14.2819C12.5679 14.5974 12.3121 14.8532 11.9966 14.8532H1.71381C1.39829 14.8532 1.14253 14.5974 1.14253 14.2819V2.85651C1.14253 2.54099 1.39829 2.28523 1.71381 2.28523H8.56904C8.88455 2.28523 9.14032 2.02946 9.14032 1.71395C9.14032 1.39843 8.88455 1.1427 8.56904 1.1427H1.71381C0.767297 1.1427 0 1.91 0 2.85651V14.2819C0 15.2284 0.767297 15.9957 1.71381 15.9957H11.9967C12.9432 15.9957 13.7105 15.2284 13.7105 14.2819V8.56918C13.7105 8.2537 13.4547 7.99793 13.1392 7.99793Z" fill="#D0021B"/>
<path fill-rule="evenodd" clip-rule="evenodd" d="M15.3554 0.640804C14.9452 0.230561 14.3889 0.000192046 13.8087 0.000192046C13.2283 -0.00147256 12.6714 0.229356 12.2623 0.641172L4.73754 8.16532C4.67511 8.22822 4.62801 8.30467 4.59986 8.38869L3.45734 11.8163C3.35762 12.1156 3.51946 12.4391 3.81881 12.5388C3.87689 12.5582 3.9377 12.5681 3.99889 12.5681C4.06022 12.5681 4.12117 12.5582 4.17941 12.539L7.60703 11.3965C7.69121 11.3683 7.7677 11.321 7.83039 11.2582L15.3551 3.73346C16.2092 2.8795 16.2093 1.49486 15.3554 0.640804ZM14.5474 2.92623L7.12087 10.3527L4.90206 11.0937L5.6407 8.87769L13.0701 1.45121C13.4785 1.04358 14.1401 1.04425 14.5477 1.45269C14.7424 1.6478 14.8521 1.91193 14.853 2.18758C14.8537 2.4647 14.7437 2.73061 14.5474 2.92623Z" fill="#D0021B"/>
</svg>
