<svg width="157" height="18" viewBox="0 0 157 18" fill="none" xmlns="http://www.w3.org/2000/svg">
<path d="M7.9725 16.5229L12.1229 4.18317L16.1429 16.5592L18.764 16.5709L24.1984 0.983621L21.5568 0.971879L17.4675 13.3937L13.4888 0.936016L10.9087 0.924547L6.92242 13.2036L2.86117 0.888776L0.0353155 0.876215L5.35141 16.5113L7.9725 16.5229ZM41.6577 16.6113L41.6674 14.422L30.0364 14.3703L30.0569 9.76678L40.5821 9.81357L40.5921 7.58341L30.0668 7.53663L30.0858 3.26045L41.6963 3.31206L41.7064 1.06144L27.3928 0.99782L27.3237 16.5475L41.6577 16.6113ZM55.9303 16.6747C59.4319 16.6903 61.3009 15.4505 61.3141 12.4838C61.3234 10.3764 60.2024 9.18466 58.7295 8.87121C60.1034 8.42718 61.2345 7.3478 61.2435 5.32224C61.2573 2.2123 59.3167 1.13972 56.0609 1.12525L46.1089 1.08101L46.0398 16.6307L55.9303 16.6747ZM55.621 7.93666L48.7816 7.90626L48.8023 3.26181L55.9488 3.29357C57.628 3.30104 58.5465 3.95986 58.5398 5.47391C58.532 7.23348 57.382 7.94449 55.621 7.93666ZM55.8169 14.5463L48.7523 14.5149L48.7725 9.97274L56.1238 10.0054C57.8029 10.0129 58.6397 10.6304 58.6327 12.2058C58.6254 13.8631 57.6394 14.5544 55.8169 14.5463ZM72.9264 16.7502L72.9855 3.45115L79.2515 3.479L79.2615 1.22838L64.0265 1.16066L64.0165 3.41128L70.2825 3.43913L70.2234 16.7382L72.9264 16.7502ZM96.8027 16.8564L96.8124 14.6671L85.1814 14.6154L85.2019 10.0119L95.7271 10.0587L95.7371 7.82853L85.2118 7.78175L85.2308 3.50558L96.8414 3.55719L96.8514 1.30657L82.5378 1.24294L82.4687 16.7927L96.8027 16.8564ZM103.888 16.8879L103.91 11.957L106.232 10.044L113.369 16.93L116.973 16.946L108.021 8.47649L116.468 1.39377L112.824 1.37756L103.922 9.29715L103.957 1.33815L101.254 1.32614L101.185 16.8759L103.888 16.8879ZM122.604 16.9711L122.554 5.14464L133.498 17.0195L135.689 17.0292L135.758 1.47951L133.137 1.46786L133.187 13.2738L122.243 1.41944L120.032 1.4096L119.962 16.9593L122.604 16.9711ZM148.261 17.3102C153.994 17.3357 156.977 14.2594 157 9.14434C157.023 3.927 153.963 1.33537 148.332 1.31034C142.66 1.28512 139.597 3.84954 139.574 9.06688C139.551 14.1819 142.486 17.2845 148.261 17.3102ZM148.25 15.039C144.216 15.0211 142.259 13.0482 142.277 9.07889C142.293 5.37561 144.226 3.58367 148.301 3.60178C152.376 3.6199 154.293 5.42894 154.277 9.13223C154.259 13.1015 152.264 15.0569 148.25 15.039Z" fill="#D0021B"/>
</svg>
