<svg width="20" height="20" viewBox="0 0 20 20" fill="none" xmlns="http://www.w3.org/2000/svg">
<path fill-rule="evenodd" clip-rule="evenodd" d="M17.6217 11.1056C17.4581 11.0646 17.2946 11.1056 17.1514 11.2082C16.6198 11.6596 16.0064 12.029 15.3316 12.2752C14.6977 12.5214 14.0025 12.6446 13.2664 12.6446C11.6102 12.6446 10.0971 11.9674 9.01341 10.8799C7.92971 9.79241 7.25495 8.27401 7.25495 6.61197C7.25495 5.91433 7.37763 5.2372 7.5821 4.62163C7.80702 3.96503 8.13418 3.36998 8.56357 2.857C8.7476 2.63129 8.7067 2.30299 8.48178 2.11832C8.33865 2.01573 8.17507 1.97469 8.01149 2.01573C6.27348 2.48766 4.76038 3.53413 3.67668 4.92942C2.63387 6.30419 2 8.00726 2 9.87449C2 12.1111 2.89968 14.1424 4.37188 15.6198C5.84408 17.0972 7.86836 18 10.0971 18C11.9783 18 13.7163 17.3434 15.1067 16.2559C16.5176 15.1479 17.5399 13.5679 17.9693 11.7622C18.0715 11.4545 17.908 11.1672 17.6217 11.1056Z" fill="#8C8C8C"/>
</svg>
