<svg width="200" height="191" viewBox="0 0 200 191" fill="none" xmlns="http://www.w3.org/2000/svg">
<g filter="url(#filter0_d_1149_169)">
<mask id="path-1-inside-1_1149_169" fill="white">
<path fill-rule="evenodd" clip-rule="evenodd" d="M104 4L100 0L96 4H25C19.4772 4 15 8.47715 15 14V151C15 156.523 19.4772 161 25 161H175C180.523 161 185 156.523 185 151V14C185 8.47715 180.523 4 175 4H104Z"/>
</mask>
<path fill-rule="evenodd" clip-rule="evenodd" d="M104 4L100 0L96 4H25C19.4772 4 15 8.47715 15 14V151C15 156.523 19.4772 161 25 161H175C180.523 161 185 156.523 185 151V14C185 8.47715 180.523 4 175 4H104Z" fill="white"/>
<path d="M100 0L100.707 -0.707107L100 -1.41421L99.2929 -0.707107L100 0ZM104 4L103.293 4.70711L103.586 5H104V4ZM96 4V5H96.4142L96.7071 4.70711L96 4ZM99.2929 0.707107L103.293 4.70711L104.707 3.29289L100.707 -0.707107L99.2929 0.707107ZM96.7071 4.70711L100.707 0.707107L99.2929 -0.707107L95.2929 3.29289L96.7071 4.70711ZM25 5H96V3H25V5ZM16 14C16 9.02943 20.0294 5 25 5V3C18.9249 3 14 7.92486 14 14H16ZM16 151V14H14V151H16ZM25 160C20.0294 160 16 155.971 16 151H14C14 157.075 18.9249 162 25 162V160ZM175 160H25V162H175V160ZM184 151C184 155.971 179.971 160 175 160V162C181.075 162 186 157.075 186 151H184ZM184 14V151H186V14H184ZM175 5C179.971 5 184 9.02944 184 14H186C186 7.92487 181.075 3 175 3V5ZM104 5H175V3H104V5Z" fill="#DDDDDD" mask="url(#path-1-inside-1_1149_169)"/>
</g>
<defs>
<filter id="filter0_d_1149_169" x="0" y="0" width="200" height="191" filterUnits="userSpaceOnUse" color-interpolation-filters="sRGB">
<feFlood flood-opacity="0" result="BackgroundImageFix"/>
<feColorMatrix in="SourceAlpha" type="matrix" values="0 0 0 0 0 0 0 0 0 0 0 0 0 0 0 0 0 0 127 0" result="hardAlpha"/>
<feOffset dy="15"/>
<feGaussianBlur stdDeviation="7.5"/>
<feColorMatrix type="matrix" values="0 0 0 0 0 0 0 0 0 0 0 0 0 0 0 0 0 0 0.15 0"/>
<feBlend mode="normal" in2="BackgroundImageFix" result="effect1_dropShadow_1149_169"/>
<feBlend mode="normal" in="SourceGraphic" in2="effect1_dropShadow_1149_169" result="shape"/>
</filter>
</defs>
</svg>
