<svg width="20" height="18" viewBox="0 0 20 18" fill="none" xmlns="http://www.w3.org/2000/svg">
<path d="M0.833313 17.4999H4.16663V7.49994H0.833313V17.4999ZM19.1665 8.33327C19.1665 7.4166 18.4165 6.66661 17.4999 6.66661H12.2416L13.0332 2.8583L13.0582 2.59164C13.0582 2.24997 12.9166 1.93331 12.6916 1.70831L11.8082 0.833313L6.32494 6.32494C6.01661 6.62494 5.83328 7.04161 5.83328 7.49994V15.8332C5.83328 16.7499 6.58328 17.4999 7.49994 17.4999H14.9999C15.6916 17.4999 16.2832 17.0832 16.5332 16.4832L19.0499 10.6083C19.1249 10.4166 19.1665 10.2166 19.1665 9.99992V8.40827L19.1582 8.39993L19.1665 8.33327Z" fill="#00A82D"/>
</svg>
