<svg width="20" height="18" viewBox="0 0 20 18" fill="none" xmlns="http://www.w3.org/2000/svg">
<path d="M12.4999 0.5H4.99995C4.30829 0.5 3.71663 0.92083 3.46663 1.51666L0.954146 7.39162C0.879146 7.58329 0.833313 7.78745 0.833313 7.99995V9.59577L0.841646 9.60411L0.833313 9.66661C0.833313 10.5874 1.57914 11.3333 2.49997 11.3333H7.76244L6.96661 15.1416C6.94994 15.2249 6.93744 15.3124 6.93744 15.4041C6.93744 15.7499 7.07911 16.0624 7.30411 16.2874L8.1916 17.1666L13.6791 11.6791C13.9791 11.3749 14.1666 10.9583 14.1666 10.4999V2.16666C14.1666 1.24583 13.4207 0.5 12.4999 0.5ZM15.8332 0.5V10.4999H19.1665V0.5H15.8332Z" fill="#D0021B"/>
</svg>
